<svg width="36" height="37" viewBox="0 0 36 37" fill="none" xmlns="http://www.w3.org/2000/svg">
<path d="M16.2028 0.0215149C11.4737 0.528954 7.18871 2.79128 4.17227 6.38564C2.0509 8.90873 0.732967 11.7701 0.148003 15.1249C0.0140955 15.8931 0 16.2666 0 18.0144C0 19.7623 0.0140955 20.1358 0.148003 20.904C0.810492 24.7098 2.40328 27.8602 5.0321 30.5876C7.73139 33.3926 11.1355 35.1687 15.1104 35.8664C15.8786 36.0003 16.2521 36.0144 18 36.0144C20.2059 36.0144 20.8684 35.9439 22.6022 35.4999C28.8183 33.893 33.8786 28.8327 35.4855 22.6166C35.9295 20.8829 35.9999 20.2204 35.9999 18.0144C35.9999 15.8085 35.9295 15.146 35.4855 13.4123C33.8786 7.20318 28.8183 2.13584 22.6022 0.528954C21.0023 0.120182 20.2482 0.0285606 18.2819 0.00741959C17.2952 -0.00667572 16.3578 0.000370026 16.2028 0.0215149ZM27.4792 10.3606C28.1346 10.6636 28.5011 11.1922 28.5575 11.897C28.6209 12.7075 28.8676 12.4256 22.3132 18.9306C18.1409 23.0677 16.2803 24.8649 16.0477 24.9917C15.5614 25.2454 14.9131 25.2384 14.4761 24.9776C14.0885 24.745 8.03444 19.2337 7.77367 18.8743C7.23805 18.1342 7.35786 17.1053 8.04149 16.5415C8.57007 16.0974 9.29599 16.0199 9.9021 16.33C10.0571 16.4075 11.3116 17.4999 12.693 18.7685L15.195 21.0591L20.5301 15.731C23.462 12.7991 25.8794 10.4029 25.8935 10.4029C25.9146 10.4029 26.0556 10.3535 26.2106 10.2971C26.6264 10.1491 27.0775 10.1703 27.4792 10.3606Z" fill="#6BB04D"/>
</svg>
