<svg width="46" height="33" viewBox="0 0 46 33" fill="none" xmlns="http://www.w3.org/2000/svg">
<g opacity="0.4">
<path d="M36.3699 17.4828C39.2646 17.4828 41.6112 15.1361 41.6112 12.2414C41.6112 9.34665 39.2646 7 36.3699 7C33.4751 7 31.1285 9.34665 31.1285 12.2414C31.1285 15.1361 33.4751 17.4828 36.3699 17.4828Z" fill="#716BF1"/>
<path d="M36.3691 20.1035C31.1224 20.1035 26.8691 24.3568 26.8691 29.6035H45.8691C45.8691 24.3568 41.6158 20.1035 36.3691 20.1035Z" fill="#716BF1"/>
</g>
<g opacity="0.4">
<path d="M9.50072 17.4828C12.3955 17.4828 14.7421 15.1361 14.7421 12.2414C14.7421 9.34665 12.3955 7 9.50072 7C6.60598 7 4.25934 9.34665 4.25934 12.2414C4.25934 15.1361 6.60598 17.4828 9.50072 17.4828Z" fill="#716BF1"/>
<path d="M9.5 20.1035C4.25329 20.1035 0 24.3568 0 29.6035H19C19 24.3568 14.7467 20.1035 9.5 20.1035Z" fill="#716BF1"/>
</g>
<path d="M23.347 13.913C27.189 13.913 30.3036 10.7985 30.3036 6.95652C30.3036 3.11454 27.189 0 23.347 0C19.5051 0 16.3905 3.11454 16.3905 6.95652C16.3905 10.7985 19.5051 13.913 23.347 13.913Z" fill="#716BF1"/>
<path d="M9.48828 30.0001V31.2501H10.7383H35.9557H37.2057V30.0001C37.2057 22.3461 31.0009 16.1414 23.347 16.1414C15.693 16.1414 9.48828 22.3461 9.48828 30.0001Z" fill="#716BF1" stroke="#716BF1" stroke-width="2.5"/>
</svg>
