<svg width="47" height="46" viewBox="0 0 47 46" fill="none" xmlns="http://www.w3.org/2000/svg">
<g filter="url(#filter0_d_39_430)">
<path d="M21.776 0.0535469C18.3902 0.580719 15.7173 3.00126 14.8188 6.34991C14.6258 7.08498 14.5515 8.9338 14.6852 9.76539C14.9525 11.4434 15.8286 13.1438 17.0537 14.3689L17.5586 14.8738L17.18 15.0074C15.9846 15.4232 14.2248 16.433 12.97 17.4354C11.782 18.3858 10.0223 20.346 9.59166 21.2073C9.46544 21.4671 9.44316 22.1205 9.54711 22.4101C9.75501 22.9521 10.3713 23.3605 10.9727 23.3679C11.537 23.3679 11.9083 23.1229 12.48 22.3656C13.1705 21.4449 13.9204 20.6355 14.6332 20.0341C17.9225 17.2795 22.2289 16.3365 26.3795 17.4651C29.1267 18.2076 31.5844 19.9227 33.3515 22.3136C33.953 23.1229 34.25 23.3159 34.8811 23.3159C35.4379 23.3159 35.8612 23.0932 36.1507 22.6403C36.3586 22.321 36.3735 22.2468 36.3512 21.7567C36.3289 21.2667 36.2992 21.1924 35.9651 20.7024C34.2574 18.2001 31.3394 15.9355 28.5476 14.9554C28.4362 14.9109 28.503 14.8144 28.9337 14.3837C30.1291 13.1883 30.9681 11.6068 31.28 9.98072C31.4285 9.21595 31.4285 7.59731 31.28 6.83253C30.6637 3.59525 28.258 1.06334 25.0133 0.224321C24.204 0.0238476 22.5556 -0.0652523 21.776 0.0535469ZM23.9961 3.12748C26.0082 3.51358 27.6937 5.10252 28.1986 7.07756C28.3991 7.84975 28.3991 8.9635 28.1986 9.73569C27.6937 11.7107 26.0082 13.2997 23.9961 13.6858C21.2488 14.2055 18.4942 12.4532 17.8037 9.73569C17.6032 8.9635 17.6032 7.84975 17.8037 7.07756C18.4942 4.36002 21.2488 2.60773 23.9961 3.12748Z" fill="#FFA42F"/>
<path d="M22.5185 20.8287C22.3997 20.9103 22.2586 21.0143 22.2141 21.0737C22.1621 21.1331 21.9171 21.8087 21.6646 22.5884C21.4122 23.3606 21.1746 24.0585 21.1375 24.1253C20.989 24.4075 20.7811 24.4446 18.9768 24.4817L17.2096 24.5189L16.972 24.7565C16.7716 24.9569 16.7345 25.0609 16.7048 25.4396C16.6825 25.7737 16.7048 25.937 16.7938 26.0707C16.8532 26.1746 17.4324 26.6275 18.0784 27.0953C18.7243 27.5557 19.3258 28.0086 19.4149 28.1051C19.7193 28.4392 19.7044 28.6026 19.1847 30.1247C18.8803 31.0008 18.6946 31.6765 18.6946 31.8696C18.6946 32.4264 19.1921 32.8422 19.7787 32.7754C20.0311 32.7531 20.3133 32.5824 21.2711 31.8918C22.6447 30.8969 22.6967 30.8672 23.0011 30.8672C23.3055 30.8672 23.3575 30.8969 24.7311 31.8918C25.689 32.5824 25.9711 32.7531 26.2235 32.7754C26.8101 32.8422 27.3076 32.4264 27.3076 31.8696C27.3076 31.6765 27.1145 30.9934 26.825 30.1247C26.3201 28.6397 26.2904 28.4689 26.5502 28.1497C26.6171 28.0606 27.2185 27.5928 27.8867 27.1176C28.555 26.635 29.149 26.1672 29.2158 26.0707C29.2975 25.937 29.3198 25.7663 29.2975 25.4396C29.2678 25.0609 29.2307 24.9569 29.0302 24.7565L28.7926 24.5189L27.0254 24.4817C25.5256 24.452 25.2286 24.4223 25.0653 24.3184C24.9019 24.2144 24.7831 23.9323 24.3747 22.6849C24.1 21.8533 23.8179 21.1182 23.751 21.0366C23.4466 20.6876 22.9046 20.5985 22.5185 20.8287Z" fill="#FFA42F"/>
<path d="M9.82188 26.0259C9.70308 26.1076 9.562 26.2115 9.51746 26.2709C9.46548 26.3303 9.22046 27.006 8.96801 27.7856C8.71556 28.5578 8.47796 29.2558 8.44084 29.3226C8.29234 29.6047 8.08444 29.6419 6.28017 29.679L4.51303 29.7161L4.27543 29.9537C4.07496 30.1542 4.03783 30.2581 4.00813 30.6368C3.98586 30.9635 4.00813 31.1343 4.08981 31.2605C4.14921 31.357 4.77291 31.8471 5.47085 32.352C6.6737 33.2207 6.96327 33.5029 6.96327 33.837C6.96327 33.889 6.74794 34.5646 6.48065 35.3368C6.18365 36.2055 5.99802 36.8738 5.99802 37.0668C5.99802 37.6237 6.4955 38.0395 7.08207 37.9727C7.33452 37.9504 7.61667 37.7796 8.57448 37.0891C9.9481 36.0942 10.0001 36.0645 10.3045 36.0645C10.6089 36.0645 10.6609 36.0942 12.0345 37.0891C12.9923 37.7796 13.2745 37.9504 13.5269 37.9727C14.1135 38.0395 14.611 37.6237 14.611 37.0668C14.611 36.8738 14.4179 36.1907 14.1284 35.322C13.6086 33.7924 13.5863 33.6291 13.8908 33.3024C13.9799 33.2059 14.5813 32.7529 15.2272 32.2926C15.8732 31.8248 16.4524 31.3719 16.5118 31.2679C16.6009 31.1343 16.6231 30.9709 16.6009 30.6368C16.5712 30.2581 16.534 30.1542 16.3336 29.9537L16.096 29.7161L14.3288 29.679C12.829 29.6493 12.532 29.6196 12.3686 29.5156C12.2053 29.4117 12.0865 29.1296 11.6781 27.8822C11.4034 27.0506 11.1212 26.3155 11.0544 26.2338C10.75 25.8848 10.208 25.7957 9.82188 26.0259Z" fill="#FFA42F"/>
<path d="M35.2152 26.0259C35.0964 26.1076 34.9553 26.2115 34.9108 26.2709C34.8588 26.3303 34.6138 27.006 34.3613 27.7856C34.1089 28.5578 33.8713 29.2558 33.8341 29.3226C33.6856 29.6047 33.4777 29.6419 31.6735 29.679L29.9063 29.7161L29.6687 29.9537C29.4683 30.1542 29.4311 30.2581 29.4014 30.6368C29.3792 30.9635 29.4014 31.1343 29.4831 31.2605C29.5425 31.357 30.1662 31.8471 30.8642 32.352C32.067 33.2207 32.3566 33.5029 32.3566 33.837C32.3566 33.889 32.1413 34.5646 31.874 35.3368C31.577 36.2055 31.3913 36.8738 31.3913 37.0668C31.3913 37.6237 31.8888 38.0395 32.4754 37.9727C32.7278 37.9504 33.01 37.7796 33.9678 37.0891C35.3414 36.0942 35.3934 36.0645 35.6978 36.0645C36.0022 36.0645 36.0542 36.0942 37.4278 37.0891C38.3856 37.7796 38.6678 37.9504 38.9202 37.9727C39.5068 38.0395 40.0043 37.6237 40.0043 37.0668C40.0043 36.8738 39.8112 36.1907 39.5217 35.322C39.0019 33.7924 38.9796 33.6291 39.2841 33.3024C39.3732 33.2059 39.9746 32.7529 40.6206 32.2926C41.2665 31.8248 41.8457 31.3719 41.9051 31.2679C41.9942 31.1343 42.0165 30.9709 41.9942 30.6368C41.9645 30.2581 41.9274 30.1542 41.7269 29.9537L41.4893 29.7161L39.7221 29.679C38.2223 29.6493 37.9253 29.6196 37.762 29.5156C37.5986 29.4117 37.4798 29.1296 37.0714 27.8822C36.7967 27.0506 36.5146 26.3155 36.4477 26.2338C36.1433 25.8848 35.6013 25.7957 35.2152 26.0259Z" fill="#FFA42F"/>
</g>
<defs>
<filter id="filter0_d_39_430" x="0" y="0.000244141" width="46.0022" height="45.9795" filterUnits="userSpaceOnUse" color-interpolation-filters="sRGB">
<feFlood flood-opacity="0" result="BackgroundImageFix"/>
<feColorMatrix in="SourceAlpha" type="matrix" values="0 0 0 0 0 0 0 0 0 0 0 0 0 0 0 0 0 0 127 0" result="hardAlpha"/>
<feOffset dy="4"/>
<feGaussianBlur stdDeviation="2"/>
<feComposite in2="hardAlpha" operator="out"/>
<feColorMatrix type="matrix" values="0 0 0 0 0 0 0 0 0 0 0 0 0 0 0 0 0 0 0.25 0"/>
<feBlend mode="normal" in2="BackgroundImageFix" result="effect1_dropShadow_39_430"/>
<feBlend mode="normal" in="SourceGraphic" in2="effect1_dropShadow_39_430" result="shape"/>
</filter>
</defs>
</svg>
