<svg width="38" height="40" viewBox="0 0 38 40" fill="none" xmlns="http://www.w3.org/2000/svg">
<path d="M9.71771 0.73221C8.43125 2.08794 7.80782 3.602 7.80782 5.39315C7.80782 6.78846 7.94636 7.34263 8.39167 7.76815C8.59948 7.95617 8.7875 8.1145 8.81719 8.1145C8.92604 8.1145 9.87604 9.36138 10.1927 9.91554C10.3609 10.2322 10.5193 10.4895 10.5391 10.4895C10.5589 10.4895 10.7172 10.2322 10.8854 9.90565C11.2516 9.22284 12.1224 8.16398 12.6073 7.81763C12.9042 7.60981 12.9734 7.47127 13.112 6.90721C13.6266 4.66086 12.9438 2.4145 11.2021 0.563981C10.9052 0.25721 10.5984 -8.12486e-05 10.5391 -8.12486e-05C10.4698 -8.12486e-05 10.1036 0.326481 9.71771 0.73221Z" fill="#DF2475"/>
<path d="M2.90937 7.27342C2.86979 7.42186 2.86979 7.98592 2.89947 8.5203C3.03801 10.7469 4.14635 12.637 5.93749 13.6859C6.92708 14.2599 7.68906 14.4677 9.03489 14.5271L10.1927 14.5667V13.5474C10.1927 11.5682 9.65833 10.2323 8.37187 8.94582C7.12499 7.69894 5.90781 7.17446 3.98801 7.05571L2.97864 6.99634L2.90937 7.27342Z" fill="#DF2475"/>
<path d="M16.3776 7.09531C13.9531 7.43177 11.875 9.13385 11.1922 11.3307C11.0339 11.8354 11.0141 12.1323 11.0635 13.2406L11.113 14.5469H11.9245C14.2896 14.5469 16.3974 13.2604 17.4662 11.1724C18.0203 10.0938 18.3172 8.50052 18.1688 7.48125L18.0995 7.02604L17.387 7.03594C16.9912 7.04583 16.5458 7.07552 16.3776 7.09531Z" fill="#DF2475"/>
<path d="M30.9047 7.72856C30.3604 7.82752 30.0042 8.02544 29.6182 8.43117C29.3115 8.75773 23.75 18.1984 23.75 18.3963C23.75 18.4754 24.6406 18.5051 26.6099 18.5051H29.4698L31.4984 15.0119C32.6167 13.102 33.5964 11.3801 33.6854 11.2119C33.9427 10.7072 33.9823 10.0937 33.8141 9.49002C33.4479 8.23325 32.201 7.47127 30.9047 7.72856Z" fill="#DF2475"/>
<path d="M0 19.9499C0 20.2468 0.0494792 20.9197 0.11875 21.4343L0.227604 22.3645H14.5469C28.2922 22.3645 28.876 22.3744 29.0245 22.5426C29.2323 22.7702 29.2323 22.8989 29.0344 23.0968C28.8958 23.2353 27.4609 23.2551 14.6755 23.2551H0.475L0.544271 23.6213C0.771875 24.9275 1.88021 27.5103 2.89948 29.1431C4.45312 31.6468 6.90729 33.9624 9.61875 35.4963L10.5391 36.0208H19H27.4609L28.3812 35.4963C31.0729 33.9723 33.5766 31.6072 35.1104 29.1431C35.6547 28.2624 36.1198 27.3718 36.1198 27.2135C36.1198 27.1442 32.7354 27.1145 25.4818 27.1145C14.9526 27.1145 14.8536 27.1145 14.7448 26.9166C14.6557 26.7484 14.7052 26.4812 14.8734 26.303C14.8833 26.2833 19.7917 26.2536 25.7687 26.2239L36.6443 26.1744L36.9312 25.3827C37.5151 23.7895 38 21.3254 38 19.9994V19.3958H19H0V19.9499Z" fill="#DF2475"/>
<path d="M9.49999 37.0895C9.08437 37.2973 8.70833 37.9109 8.70833 38.3958C8.70833 38.851 8.99531 39.3853 9.40104 39.6525L9.7276 39.8801H19H28.2724L28.599 39.6624C29.5589 39.0093 29.4797 37.5546 28.4604 37.0697C28.1536 36.9312 27.2135 36.9114 18.9802 36.9114C10.4797 36.9114 9.82656 36.9213 9.49999 37.0895Z" fill="#DF2475"/>
</svg>
